<?xml version="1.0" encoding="UTF-8"?>
<!DOCTYPE svg PUBLIC "-//W3C//DTD SVG 1.1//EN" "http://www.w3.org/Graphics/SVG/1.1/DTD/svg11.dtd">
<svg xmlns="http://www.w3.org/2000/svg" version="1.1" width="534px" height="468px" style="shape-rendering:geometricPrecision; text-rendering:geometricPrecision; image-rendering:optimizeQuality; fill-rule:evenodd; clip-rule:evenodd" xmlns:xlink="http://www.w3.org/1999/xlink">
<g><path style="opacity:0.186" fill="#362da7" d="M 207.5,23.5 C 218.505,23.3335 229.505,23.5002 240.5,24C 243.695,24.1805 246.695,24.6805 249.5,25.5C 235.335,25.0391 221.335,24.3724 207.5,23.5 Z"/></g>
<g><path style="opacity:0.208" fill="#382baf" d="M 206.5,24.5 C 201.22,25.4866 195.887,26.82 190.5,28.5C 188.962,28.5466 187.962,27.8799 187.5,26.5C 193.79,25.4587 200.123,24.792 206.5,24.5 Z"/></g>
<g><path style="opacity:1" fill="#402eef" d="M 207.5,70.5 C 207.5,70.8333 207.5,71.1667 207.5,71.5C 200.483,71.6618 193.817,72.9951 187.5,75.5C 181.748,76.2171 176.081,77.3838 170.5,79C 164.779,82.5272 158.779,85.5272 152.5,88C 150.76,89.517 149.094,91.017 147.5,92.5C 146.564,93.9744 145.23,94.9744 143.5,95.5C 140.393,96.8887 137.393,98.5554 134.5,100.5C 130.067,105.259 125.734,109.926 121.5,114.5C 116.187,121.092 110.854,127.758 105.5,134.5C 102.832,138.448 100.165,142.448 97.5,146.5C 96.5344,148.396 96.2011,150.396 96.5,152.5C 95.6792,156.127 94.3459,159.46 92.5,162.5C 90.4498,164.248 89.1164,166.581 88.5,169.5C 85.9219,176.61 84.5886,183.944 84.5,191.5C 83.6829,193.969 83.1829,196.635 83,199.5C 82.3333,210.167 82.3333,220.833 83,231.5C 84.4062,238.408 86.2396,245.074 88.5,251.5C 89.4075,257.701 91.0742,263.701 93.5,269.5C 94.0152,274.207 94.8485,278.874 96,283.5C 96.9078,285.439 98.4078,286.439 100.5,286.5C 100.5,287.833 100.5,289.167 100.5,290.5C 104.044,290.239 105.878,291.905 106,295.5C 111.228,300.06 115.728,305.226 119.5,311C 121.965,311.632 123.631,313.132 124.5,315.5C 125.689,316.429 127.022,316.762 128.5,316.5C 129.444,322.024 132.777,324.691 138.5,324.5C 142.537,327.18 146.537,329.846 150.5,332.5C 153.721,336.189 157.721,339.022 162.5,341C 164.066,341.765 165.399,341.598 166.5,340.5C 167.71,340.932 168.71,341.599 169.5,342.5C 168.596,343.209 168.263,344.209 168.5,345.5C 173.15,346.26 177.817,346.926 182.5,347.5C 189.266,351.195 196.6,353.195 204.5,353.5C 217.149,354.499 229.816,354.832 242.5,354.5C 243.167,354.5 243.833,354.5 244.5,354.5C 248.167,354.5 251.833,354.5 255.5,354.5C 255.5,355.5 255.5,356.5 255.5,357.5C 252.022,357.184 248.688,357.684 245.5,359C 246.09,360.299 247.09,361.132 248.5,361.5C 250.762,360.533 253.095,359.866 255.5,359.5C 255.822,361.722 255.155,363.556 253.5,365C 254.191,366.067 254.691,367.234 255,368.5C 254.877,386.128 255.71,403.628 257.5,421C 256.014,421.251 255.014,422.585 254.5,425C 252.236,424.302 250.403,424.802 249,426.5C 248.667,426.167 248.333,425.833 248,425.5C 248.019,427.107 248.185,428.774 248.5,430.5C 246.5,430.833 244.5,431.167 242.5,431.5C 242.5,432.5 242.5,433.5 242.5,434.5C 239.865,435.729 237.199,435.729 234.5,434.5C 235.506,433.604 235.506,432.938 234.5,432.5C 233.186,433.313 232.019,434.313 231,435.5C 230.544,436.744 231.044,437.577 232.5,438C 229.613,437.977 227.613,436.477 226.5,433.5C 225.702,431.922 225.202,430.256 225,428.5C 224.83,419.324 224.33,410.324 223.5,401.5C 208.999,400.631 194.666,398.297 180.5,394.5C 177.975,394.503 175.641,394.837 173.5,395.5C 172.833,395.167 172.167,394.833 171.5,394.5C 169.794,392.464 167.461,391.464 164.5,391.5C 164.67,390.178 164.337,389.011 163.5,388C 160.883,387.178 158.216,386.678 155.5,386.5C 155.62,383.795 154.62,383.128 152.5,384.5C 149.573,383.238 146.907,381.571 144.5,379.5C 142.253,380.374 139.92,380.708 137.5,380.5C 135.86,378.831 134.526,376.831 133.5,374.5C 130.545,372.303 127.212,370.97 123.5,370.5C 122.614,369.675 122.281,368.675 122.5,367.5C 118.082,366.127 113.749,364.461 109.5,362.5C 109.167,362.5 108.833,362.5 108.5,362.5C 108.5,360.5 108.5,358.5 108.5,356.5C 106.473,356.662 104.473,356.495 102.5,356C 101.211,354.198 99.5441,353.031 97.5,352.5C 95.3227,348.97 92.4894,345.97 89,343.5C 87.9857,336.842 84.6524,331.842 79,328.5C 78.6667,329.167 78.3333,329.833 78,330.5C 76.5931,328.139 75.0931,325.806 73.5,323.5C 72.5832,322.873 71.5832,322.539 70.5,322.5C 67.805,316.163 65.1383,309.83 62.5,303.5C 60.4714,302.156 58.4714,300.823 56.5,299.5C 56.6695,297.088 56.0028,294.921 54.5,293C 54.7355,292.127 55.0688,291.293 55.5,290.5C 51.0849,283.771 47.9182,276.437 46,268.5C 44.5952,267.269 43.4286,265.936 42.5,264.5C 41.1563,255.215 39.9897,245.882 39,236.5C 37.5468,230.576 36.0468,224.909 34.5,219.5C 34.5,219.167 34.5,218.833 34.5,218.5C 36.4722,209.56 37.1389,200.227 36.5,190.5C 37.2831,187.224 38.2831,183.891 39.5,180.5C 40.4909,176.555 40.8242,172.555 40.5,168.5C 41.9779,167.03 43.3112,165.363 44.5,163.5C 45.1642,159.298 46.3308,155.298 48,151.5C 49.1545,150.257 50.4878,149.257 52,148.5C 53.3696,144.26 53.5362,139.926 52.5,135.5C 53.5,135.5 54.5,135.5 55.5,135.5C 57.1347,131.046 58.1347,126.379 58.5,121.5C 61.6234,118.719 65.1234,116.385 69,114.5C 68.9813,112.893 68.8146,111.226 68.5,109.5C 70.1667,109.5 71.8333,109.5 73.5,109.5C 73.5,108.5 73.5,107.5 73.5,106.5C 77.7895,106.256 78.4561,104.589 75.5,101.5C 76.4533,99.5448 77.7866,97.8782 79.5,96.5C 78.3775,94.5184 78.3775,92.5184 79.5,90.5C 84.2647,87.2402 88.598,83.4069 92.5,79C 93.7839,78.3162 94.9505,78.4829 96,79.5C 96.4828,78.552 96.6495,77.552 96.5,76.5C 97.5,76.5 98.5,76.5 99.5,76.5C 99.5,74.5 99.5,72.5 99.5,70.5C 102.208,67.7915 105.208,65.4581 108.5,63.5C 110.55,63.0388 112.55,62.3721 114.5,61.5C 118.926,56.0706 124.593,52.5706 131.5,51C 132.883,49.7292 133.883,48.2292 134.5,46.5C 138.818,43.6744 143.484,41.3411 148.5,39.5C 154.251,38.1251 159.917,36.4584 165.5,34.5C 177.974,32.7052 190.307,30.2052 202.5,27C 217.5,26.3333 232.5,26.3333 247.5,27C 250.47,27.7625 252.97,29.2625 255,31.5C 255.5,42.1615 255.667,52.8281 255.5,63.5C 253.143,63.3367 250.81,63.5034 248.5,64C 250.898,64.0253 253.231,64.8587 255.5,66.5C 254.167,66.8333 252.833,67.1667 251.5,67.5C 237.181,68.2646 222.848,68.7646 208.5,69C 207.944,69.3826 207.611,69.8826 207.5,70.5 Z"/></g>
<g><path style="opacity:0.733" fill="#4233b9" d="M 249.5,25.5 C 258.977,26.3955 268.31,28.0621 277.5,30.5C 275.735,31.4614 273.735,31.7947 271.5,31.5C 266.247,29.0516 260.581,27.8849 254.5,28C 252.685,27.2432 251.019,26.4098 249.5,25.5 Z"/></g>
<g><path style="opacity:1" fill="#4b34eb" d="M 207.5,23.5 C 221.335,24.3724 235.335,25.0391 249.5,25.5C 251.019,26.4098 252.685,27.2432 254.5,28C 260.581,27.8849 266.247,29.0516 271.5,31.5C 271.925,34.7135 273.425,35.3802 276,33.5C 277.404,33.5093 278.57,34.0093 279.5,35C 277.893,36.049 277.227,37.549 277.5,39.5C 281.007,39.6933 284.34,39.0267 287.5,37.5C 288.417,38.1272 289.417,38.4606 290.5,38.5C 289.571,39.3149 288.571,40.1482 287.5,41C 284.377,41.2065 281.377,41.8732 278.5,43C 279.5,43.3333 280.5,43.6667 281.5,44C 279.779,44.7393 278.113,45.5726 276.5,46.5C 277.805,55.4704 277.805,64.4704 276.5,73.5C 274.075,71.8555 271.408,70.6888 268.5,70C 269.833,69.3333 269.833,68.6667 268.5,68C 266.567,67.7489 264.734,67.2489 263,66.5C 262.365,67.9663 261.531,69.2997 260.5,70.5C 263.251,71.016 265.584,72.1827 267.5,74C 265.5,74.6667 263.5,74.6667 261.5,74C 260.315,72.647 258.981,71.4803 257.5,70.5C 240.895,70.6493 224.228,70.6493 207.5,70.5C 207.611,69.8826 207.944,69.3826 208.5,69C 222.848,68.7646 237.181,68.2646 251.5,67.5C 252.833,67.1667 254.167,66.8333 255.5,66.5C 253.231,64.8587 250.898,64.0253 248.5,64C 250.81,63.5034 253.143,63.3367 255.5,63.5C 255.667,52.8281 255.5,42.1615 255,31.5C 252.97,29.2625 250.47,27.7625 247.5,27C 232.5,26.3333 217.5,26.3333 202.5,27C 190.307,30.2052 177.974,32.7052 165.5,34.5C 170.783,32.2956 176.116,30.2956 181.5,28.5C 183.5,27.8333 185.5,27.1667 187.5,26.5C 187.962,27.8799 188.962,28.5466 190.5,28.5C 195.887,26.82 201.22,25.4866 206.5,24.5C 206.5,23.8333 206.833,23.5 207.5,23.5 Z"/></g>
<g><path style="opacity:0.529" fill="#3c30b3" d="M 181.5,28.5 C 176.116,30.2956 170.783,32.2956 165.5,34.5C 159.917,36.4584 154.251,38.1251 148.5,39.5C 158.949,34.4615 169.949,30.7948 181.5,28.5 Z"/></g>
<g><path style="opacity:1" fill="#593aea" d="M 290.5,38.5 C 293.589,39.7389 296.589,41.2389 299.5,43C 300.38,44.3561 300.714,45.8561 300.5,47.5C 302.167,47.5 303.833,47.5 305.5,47.5C 304.956,52.5729 306.289,57.0729 309.5,61C 309.028,63.9735 308.195,63.8068 307,60.5C 306.259,61.6405 305.425,61.6405 304.5,60.5C 303.614,61.325 303.281,62.325 303.5,63.5C 304.5,63.5 305.5,63.5 306.5,63.5C 306.816,71.7524 306.482,79.919 305.5,88C 306.26,89.4411 306.926,90.9411 307.5,92.5C 306.767,93.087 305.767,93.087 304.5,92.5C 302.958,91.8592 301.624,90.8592 300.5,89.5C 298.604,88.5344 296.604,88.2011 294.5,88.5C 294.67,87.1779 294.337,86.0113 293.5,85C 286.469,82.3593 279.135,80.526 271.5,79.5C 271.38,78.4138 270.713,77.7472 269.5,77.5C 264.76,76.2089 260.093,75.2089 255.5,74.5C 252.628,73.6746 249.628,72.8412 246.5,72C 233.504,71.5001 220.504,71.3334 207.5,71.5C 207.5,71.1667 207.5,70.8333 207.5,70.5C 224.228,70.6493 240.895,70.6493 257.5,70.5C 258.981,71.4803 260.315,72.647 261.5,74C 263.5,74.6667 265.5,74.6667 267.5,74C 265.584,72.1827 263.251,71.016 260.5,70.5C 261.531,69.2997 262.365,67.9663 263,66.5C 264.734,67.2489 266.567,67.7489 268.5,68C 269.833,68.6667 269.833,69.3333 268.5,70C 271.408,70.6888 274.075,71.8555 276.5,73.5C 277.805,64.4704 277.805,55.4704 276.5,46.5C 278.113,45.5726 279.779,44.7393 281.5,44C 280.5,43.6667 279.5,43.3333 278.5,43C 281.377,41.8732 284.377,41.2065 287.5,41C 288.571,40.1482 289.571,39.3149 290.5,38.5 Z"/></g>
<g><path style="opacity:1" fill="#633fe7" d="M 277.5,30.5 C 286.404,33.2881 295.071,36.6214 303.5,40.5C 307.434,45.0018 312.1,48.8351 317.5,52C 318.793,52.49 320.127,52.6567 321.5,52.5C 320.952,54.3936 319.952,56.0603 318.5,57.5C 315.833,57.5 313.167,57.5 310.5,57.5C 312.345,61.3022 315.178,62.3022 319,60.5C 319.333,61.5 319.667,62.5 320,63.5C 321.493,61.4402 323.326,61.1068 325.5,62.5C 324.009,63.2436 322.509,63.9103 321,64.5C 321.078,75.1642 321.078,85.8309 321,96.5C 320.676,98.5689 319.842,98.9023 318.5,97.5C 317.452,98.3829 316.285,99.0496 315,99.5C 311.474,96.972 307.974,94.6387 304.5,92.5C 305.767,93.087 306.767,93.087 307.5,92.5C 306.926,90.9411 306.26,89.4411 305.5,88C 306.482,79.919 306.816,71.7524 306.5,63.5C 305.5,63.5 304.5,63.5 303.5,63.5C 303.281,62.325 303.614,61.325 304.5,60.5C 305.425,61.6405 306.259,61.6405 307,60.5C 308.195,63.8068 309.028,63.9735 309.5,61C 306.289,57.0729 304.956,52.5729 305.5,47.5C 303.833,47.5 302.167,47.5 300.5,47.5C 300.714,45.8561 300.38,44.3561 299.5,43C 296.589,41.2389 293.589,39.7389 290.5,38.5C 289.417,38.4606 288.417,38.1272 287.5,37.5C 284.34,39.0267 281.007,39.6933 277.5,39.5C 277.227,37.549 277.893,36.049 279.5,35C 278.57,34.0093 277.404,33.5093 276,33.5C 273.425,35.3802 271.925,34.7135 271.5,31.5C 273.735,31.7947 275.735,31.4614 277.5,30.5 Z"/></g>
<g><path style="opacity:1" fill="#5e41c5" d="M 303.5,40.5 C 313.044,45.072 322.044,50.4053 330.5,56.5C 327.289,55.5447 324.289,54.2114 321.5,52.5C 320.127,52.6567 318.793,52.49 317.5,52C 312.1,48.8351 307.434,45.0018 303.5,40.5 Z"/></g>
<g><path style="opacity:0.424" fill="#3e31bf" d="M 134.5,46.5 C 133.883,48.2292 132.883,49.7292 131.5,51C 124.593,52.5706 118.926,56.0706 114.5,61.5C 112.55,62.3721 110.55,63.0388 108.5,63.5C 116.133,56.3438 124.8,50.6772 134.5,46.5 Z"/></g>
<g><path style="opacity:1" fill="#6e44e5" d="M 321.5,52.5 C 324.289,54.2114 327.289,55.5447 330.5,56.5C 330.833,56.5 331.167,56.5 331.5,56.5C 331.539,57.5832 331.873,58.5832 332.5,59.5C 336.19,61.8711 339.523,64.5378 342.5,67.5C 341.993,68.8589 340.993,69.8589 339.5,70.5C 341.795,71.1355 343.461,72.4689 344.5,74.5C 342.647,75.7596 340.814,75.7596 339,74.5C 338.815,76.8262 339.982,78.1595 342.5,78.5C 344.055,78.278 345.389,77.6113 346.5,76.5C 347.7,77.5312 349.034,78.3645 350.5,79C 348.236,79.2362 346.069,79.7362 344,80.5C 343.333,90.5 343.333,100.5 344,110.5C 345.205,111.071 346.372,111.738 347.5,112.5C 346.066,114.22 345.233,116.22 345,118.5C 341.716,119.913 341.716,121.246 345,122.5C 346.752,121.042 348.585,119.709 350.5,118.5C 351.614,119.723 351.781,121.056 351,122.5C 348.384,123.653 345.718,124.653 343,125.5C 342.333,121.5 341.667,121.5 341,125.5C 334.777,122.277 330.277,117.443 327.5,111C 324.964,108.962 322.297,107.129 319.5,105.5C 316.703,105.033 315.369,103.367 315.5,100.5C 313.435,100.483 311.435,100.15 309.5,99.5C 307.769,97.77 305.769,96.4367 303.5,95.5C 301.699,93.8622 300.033,92.0289 298.5,90C 289.678,85.9174 280.678,82.4174 271.5,79.5C 279.135,80.526 286.469,82.3593 293.5,85C 294.337,86.0113 294.67,87.1779 294.5,88.5C 296.604,88.2011 298.604,88.5344 300.5,89.5C 301.624,90.8592 302.958,91.8592 304.5,92.5C 307.974,94.6387 311.474,96.972 315,99.5C 316.285,99.0496 317.452,98.3829 318.5,97.5C 319.842,98.9023 320.676,98.5689 321,96.5C 321.078,85.8309 321.078,75.1642 321,64.5C 322.509,63.9103 324.009,63.2436 325.5,62.5C 323.326,61.1068 321.493,61.4402 320,63.5C 319.667,62.5 319.333,61.5 319,60.5C 315.178,62.3022 312.345,61.3022 310.5,57.5C 313.167,57.5 315.833,57.5 318.5,57.5C 319.952,56.0603 320.952,54.3936 321.5,52.5 Z"/></g>
<g><path style="opacity:1" fill="#6849c0" d="M 331.5,56.5 C 337.759,60.4606 343.425,65.1273 348.5,70.5C 346.255,69.9044 344.255,68.9044 342.5,67.5C 339.523,64.5378 336.19,61.8711 332.5,59.5C 331.873,58.5832 331.539,57.5832 331.5,56.5 Z"/></g>
<g><path style="opacity:1" fill="#493fa7" d="M 207.5,71.5 C 220.504,71.3334 233.504,71.5001 246.5,72C 249.628,72.8412 252.628,73.6746 255.5,74.5C 249.142,73.7311 242.809,73.7311 236.5,74.5C 233.398,74.5034 233.065,74.0034 235.5,73C 232,72.8333 228.5,72.6667 225,72.5C 212.456,73.1921 199.956,74.1921 187.5,75.5C 193.817,72.9951 200.483,71.6618 207.5,71.5 Z"/></g>
<g><path style="opacity:1" fill="#4c438f" d="M 255.5,74.5 C 260.093,75.2089 264.76,76.2089 269.5,77.5C 270.713,77.7472 271.38,78.4138 271.5,79.5C 280.678,82.4174 289.678,85.9174 298.5,90C 300.033,92.0289 301.699,93.8622 303.5,95.5C 298.989,93.1564 294.155,91.4897 289,90.5C 288.517,91.448 288.351,92.448 288.5,93.5C 287.167,93.5 285.833,93.5 284.5,93.5C 284.703,91.3618 285.703,89.6951 287.5,88.5C 286.667,88.1667 285.833,87.8333 285,87.5C 280.738,89.2465 276.238,89.9132 271.5,89.5C 271.238,90.9778 271.571,92.3112 272.5,93.5C 274.702,92.2203 276.868,92.2203 279,93.5C 279.456,94.7441 278.956,95.5774 277.5,96C 275.109,96.2868 272.776,96.7868 270.5,97.5C 269.184,94.972 268.017,94.972 267,97.5C 263.587,94.986 259.753,93.986 255.5,94.5C 255.5,95.5 255.5,96.5 255.5,97.5C 252.721,98.0731 247.388,97.4065 239.5,95.5C 239.167,95.5 238.833,95.5 238.5,95.5C 237.657,93.8267 236.324,92.66 234.5,92C 226.267,91.2826 218.1,90.4493 210,89.5C 208.431,90.1222 206.764,90.4555 205,90.5C 201.279,90.107 197.946,89.4403 195,88.5C 194.667,89.5 194.333,90.5 194,91.5C 193.261,90.4258 192.261,89.7591 191,89.5C 188.39,91.6965 185.557,92.3632 182.5,91.5C 178.405,92.1323 174.405,93.1323 170.5,94.5C 170.709,95.086 171.043,95.586 171.5,96C 168.647,97.4301 165.647,98.2634 162.5,98.5C 162.719,97.325 162.386,96.325 161.5,95.5C 159.689,96.8265 157.689,97.8265 155.5,98.5C 155.833,99.1667 156.167,99.8333 156.5,100.5C 152.858,101.77 149.192,102.936 145.5,104C 146.328,104.915 147.328,105.581 148.5,106C 147.234,106.309 146.067,106.809 145,107.5C 143.951,105.893 142.451,105.227 140.5,105.5C 140.5,104.167 140.5,102.833 140.5,101.5C 139.167,101.5 137.833,101.5 136.5,101.5C 139.02,99.7368 141.353,97.7368 143.5,95.5C 145.23,94.9744 146.564,93.9744 147.5,92.5C 155.744,88.9058 163.744,84.9058 171.5,80.5C 176.942,78.8231 182.275,77.1564 187.5,75.5C 199.956,74.1921 212.456,73.1921 225,72.5C 228.5,72.6667 232,72.8333 235.5,73C 233.065,74.0034 233.398,74.5034 236.5,74.5C 242.809,73.7311 249.142,73.7311 255.5,74.5 Z"/></g>
<g><path style="opacity:1" fill="#3b2ecb" d="M 99.5,70.5 C 99.5,72.5 99.5,74.5 99.5,76.5C 98.5,76.5 97.5,76.5 96.5,76.5C 96.6495,77.552 96.4828,78.552 96,79.5C 94.9505,78.4829 93.7839,78.3162 92.5,79C 88.598,83.4069 84.2647,87.2402 79.5,90.5C 85.7279,83.3604 92.3946,76.6937 99.5,70.5 Z"/></g>
<g><path style="opacity:1" fill="#4435cd" d="M 187.5,75.5 C 182.275,77.1564 176.942,78.8231 171.5,80.5C 163.744,84.9058 155.744,88.9058 147.5,92.5C 149.094,91.017 150.76,89.517 152.5,88C 158.779,85.5272 164.779,82.5272 170.5,79C 176.081,77.3838 181.748,76.2171 187.5,75.5 Z"/></g>
<g><path style="opacity:1" fill="#4b438a" d="M 303.5,95.5 C 305.769,96.4367 307.769,97.77 309.5,99.5C 312.592,101.099 314.925,103.599 316.5,107C 319.973,107.807 322.14,109.973 323,113.5C 327.723,118.391 332.556,123.058 337.5,127.5C 338.795,131.423 340.628,135.09 343,138.5C 343.49,139.793 343.657,141.127 343.5,142.5C 344.5,142.5 345.5,142.5 346.5,142.5C 347.303,146.098 348.637,149.431 350.5,152.5C 351.244,155.95 349.91,157.616 346.5,157.5C 346.67,158.822 346.337,159.989 345.5,161C 347.734,162.234 349.234,164.067 350,166.5C 350.915,165.672 351.581,164.672 352,163.5C 354.19,165.783 354.857,168.449 354,171.5C 353.026,169.122 352.359,169.456 352,172.5C 350.658,171.098 349.824,171.431 349.5,173.5C 349.392,174.442 349.059,175.275 348.5,176C 353.336,177.104 353.836,179.938 350,184.5C 349.07,182.034 348.237,182.201 347.5,185C 348.226,187.893 349.893,190.059 352.5,191.5C 353.106,198.886 353.94,206.219 355,213.5C 355.333,214.167 355.667,214.833 356,215.5C 356.296,212.294 356.796,209.128 357.5,206C 356.921,203.946 356.588,201.946 356.5,200C 357.991,197.379 358.658,194.545 358.5,191.5C 356.365,191.853 355.032,191.02 354.5,189C 355.684,186.49 356.851,183.99 358,181.5C 359.061,186.104 359.727,190.771 360,195.5C 361.016,196.634 361.683,196.301 362,194.5C 364.484,210.654 363.817,226.654 360,242.5C 358.851,239.982 358.018,237.316 357.5,234.5C 357.167,234.167 356.833,233.833 356.5,233.5C 355.749,234.376 355.249,235.376 355,236.5C 354.223,249.012 352.557,261.345 350,273.5C 349.623,274.942 348.79,275.942 347.5,276.5C 361.13,225.64 350.963,179.973 317,139.5C 295.659,116.913 269.826,102.246 239.5,95.5C 247.388,97.4065 252.721,98.0731 255.5,97.5C 255.5,96.5 255.5,95.5 255.5,94.5C 259.753,93.986 263.587,94.986 267,97.5C 268.017,94.972 269.184,94.972 270.5,97.5C 272.776,96.7868 275.109,96.2868 277.5,96C 278.956,95.5774 279.456,94.7441 279,93.5C 276.868,92.2203 274.702,92.2203 272.5,93.5C 271.571,92.3112 271.238,90.9778 271.5,89.5C 276.238,89.9132 280.738,89.2465 285,87.5C 285.833,87.8333 286.667,88.1667 287.5,88.5C 285.703,89.6951 284.703,91.3618 284.5,93.5C 285.833,93.5 287.167,93.5 288.5,93.5C 288.351,92.448 288.517,91.448 289,90.5C 294.155,91.4897 298.989,93.1564 303.5,95.5 Z"/></g>
<g><path style="opacity:1" fill="#7c4be2" d="M 342.5,67.5 C 344.255,68.9044 346.255,69.9044 348.5,70.5C 352.12,72.4528 355.12,75.1195 357.5,78.5C 357.5,80.5 357.5,82.5 357.5,84.5C 362.647,86.2348 366.314,89.5681 368.5,94.5C 367.754,95.7362 367.421,97.0695 367.5,98.5C 366.883,98.6107 366.383,98.944 366,99.5C 365.333,117.833 365.333,136.167 366,154.5C 367.623,156.703 368.457,159.203 368.5,162C 366.465,167.979 365.298,174.146 365,180.5C 364.243,178.685 363.41,177.019 362.5,175.5C 360.824,171.037 359.158,166.37 357.5,161.5C 357.253,160.287 356.586,159.62 355.5,159.5C 354.45,154.614 352.283,150.281 349,146.5C 348.505,144.527 348.338,142.527 348.5,140.5C 344.998,139.215 343.165,136.548 343,132.5C 341.25,130.576 339.417,128.909 337.5,127.5C 334.468,123.636 331.635,119.636 329,115.5C 325.291,112.626 322.125,109.293 319.5,105.5C 322.297,107.129 324.964,108.962 327.5,111C 330.277,117.443 334.777,122.277 341,125.5C 341.667,121.5 342.333,121.5 343,125.5C 345.718,124.653 348.384,123.653 351,122.5C 351.781,121.056 351.614,119.723 350.5,118.5C 348.585,119.709 346.752,121.042 345,122.5C 341.716,121.246 341.716,119.913 345,118.5C 345.233,116.22 346.066,114.22 347.5,112.5C 346.372,111.738 345.205,111.071 344,110.5C 343.333,100.5 343.333,90.5 344,80.5C 346.069,79.7362 348.236,79.2362 350.5,79C 349.034,78.3645 347.7,77.5312 346.5,76.5C 345.389,77.6113 344.055,78.278 342.5,78.5C 339.982,78.1595 338.815,76.8262 339,74.5C 340.814,75.7596 342.647,75.7596 344.5,74.5C 343.461,72.4689 341.795,71.1355 339.5,70.5C 340.993,69.8589 341.993,68.8589 342.5,67.5 Z"/></g>
<g><path style="opacity:1" fill="#7d53cc" d="M 357.5,78.5 C 370.844,90.8619 381.511,105.195 389.5,121.5C 386.916,120.952 385.916,119.285 386.5,116.5C 385.5,116.5 384.5,116.5 383.5,116.5C 383.66,114.801 383.494,113.134 383,111.5C 380.774,109.403 378.94,107.069 377.5,104.5C 374.258,102.718 371.924,100.051 370.5,96.5C 369.735,97.6119 368.735,98.2786 367.5,98.5C 367.421,97.0695 367.754,95.7362 368.5,94.5C 366.314,89.5681 362.647,86.2348 357.5,84.5C 357.5,82.5 357.5,80.5 357.5,78.5 Z"/></g>
<g><path style="opacity:1" fill="#834ee3" d="M 377.5,104.5 C 378.138,138.619 378.472,172.953 378.5,207.5C 378.333,239.167 378.167,270.833 378,302.5C 377.5,303 377,303.5 376.5,304C 377.861,305.584 378.528,307.418 378.5,309.5C 376.335,309.116 374.668,309.783 373.5,311.5C 374.067,313.982 374.734,316.316 375.5,318.5C 375.785,320.288 375.452,321.955 374.5,323.5C 370.882,327.124 368.549,331.457 367.5,336.5C 367.624,337.107 367.957,337.44 368.5,337.5C 362.299,345.909 355.633,353.909 348.5,361.5C 348.5,359.833 348.5,358.167 348.5,356.5C 349.5,356.5 350.5,356.5 351.5,356.5C 351.215,354.712 351.548,353.045 352.5,351.5C 354.55,350.923 355.55,349.59 355.5,347.5C 353.876,347.36 352.71,348.027 352,349.5C 351.205,346.617 352.371,345.117 355.5,345C 354.288,342.577 352.954,340.244 351.5,338C 352,337.5 352.5,337 353,336.5C 353.812,319.635 353.645,302.802 352.5,286C 353.579,283.845 354.913,281.845 356.5,280C 354.402,279.322 352.402,279.489 350.5,280.5C 362.222,260.071 367.555,237.904 366.5,214C 366.499,209.32 366.166,204.82 365.5,200.5C 364.987,192.113 363.987,183.779 362.5,175.5C 363.41,177.019 364.243,178.685 365,180.5C 365.298,174.146 366.465,167.979 368.5,162C 368.457,159.203 367.623,156.703 366,154.5C 365.333,136.167 365.333,117.833 366,99.5C 366.383,98.944 366.883,98.6107 367.5,98.5C 368.735,98.2786 369.735,97.6119 370.5,96.5C 371.924,100.051 374.258,102.718 377.5,104.5 Z"/></g>
<g><path style="opacity:1" fill="#4438c3" d="M 143.5,95.5 C 141.353,97.7368 139.02,99.7368 136.5,101.5C 136.167,102.167 135.833,102.833 135.5,103.5C 130.852,107.143 126.185,110.81 121.5,114.5C 125.734,109.926 130.067,105.259 134.5,100.5C 137.393,98.5554 140.393,96.8887 143.5,95.5 Z"/></g>
<g><path style="opacity:1" fill="#3e30d9" d="M 79.5,90.5 C 78.3775,92.5184 78.3775,94.5184 79.5,96.5C 77.7866,97.8782 76.4533,99.5448 75.5,101.5C 78.4561,104.589 77.7895,106.256 73.5,106.5C 73.5,107.5 73.5,108.5 73.5,109.5C 71.8333,109.5 70.1667,109.5 68.5,109.5C 68.8146,111.226 68.9813,112.893 69,114.5C 65.1234,116.385 61.6234,118.719 58.5,121.5C 64.2655,110.293 71.2655,99.9601 79.5,90.5 Z"/></g>
<g><path style="opacity:0.998" fill="#494182" d="M 238.5,95.5 C 189.504,87.8387 147.17,100.839 111.5,134.5C 110.448,134.649 109.448,134.483 108.5,134C 109.965,131.201 112.132,129.035 115,127.5C 116.385,123.777 118.219,120.277 120.5,117C 123.36,114.64 126.36,112.473 129.5,110.5C 133.462,112.107 134.129,111.441 131.5,108.5C 131.833,108.167 132.167,107.833 132.5,107.5C 134.618,108.946 136.951,109.613 139.5,109.5C 138.708,107.115 137.374,105.115 135.5,103.5C 135.833,102.833 136.167,102.167 136.5,101.5C 137.833,101.5 139.167,101.5 140.5,101.5C 140.5,102.833 140.5,104.167 140.5,105.5C 142.451,105.227 143.951,105.893 145,107.5C 146.067,106.809 147.234,106.309 148.5,106C 147.328,105.581 146.328,104.915 145.5,104C 149.192,102.936 152.858,101.77 156.5,100.5C 156.167,99.8333 155.833,99.1667 155.5,98.5C 157.689,97.8265 159.689,96.8265 161.5,95.5C 162.386,96.325 162.719,97.325 162.5,98.5C 165.647,98.2634 168.647,97.4301 171.5,96C 171.043,95.586 170.709,95.086 170.5,94.5C 174.405,93.1323 178.405,92.1323 182.5,91.5C 185.557,92.3632 188.39,91.6965 191,89.5C 192.261,89.7591 193.261,90.4258 194,91.5C 194.333,90.5 194.667,89.5 195,88.5C 197.946,89.4403 201.279,90.107 205,90.5C 206.764,90.4555 208.431,90.1222 210,89.5C 218.1,90.4493 226.267,91.2826 234.5,92C 236.324,92.66 237.657,93.8267 238.5,95.5 Z"/></g>
<g><path style="opacity:1" fill="#5942b3" d="M 309.5,99.5 C 311.435,100.15 313.435,100.483 315.5,100.5C 315.369,103.367 316.703,105.033 319.5,105.5C 322.125,109.293 325.291,112.626 329,115.5C 331.635,119.636 334.468,123.636 337.5,127.5C 332.556,123.058 327.723,118.391 323,113.5C 322.14,109.973 319.973,107.807 316.5,107C 314.925,103.599 312.592,101.099 309.5,99.5 Z"/></g>
<g><path style="opacity:1" fill="#453d97" d="M 135.5,103.5 C 137.374,105.115 138.708,107.115 139.5,109.5C 136.951,109.613 134.618,108.946 132.5,107.5C 132.167,107.833 131.833,108.167 131.5,108.5C 134.129,111.441 133.462,112.107 129.5,110.5C 126.36,112.473 123.36,114.64 120.5,117C 118.219,120.277 116.385,123.777 115,127.5C 112.132,129.035 109.965,131.201 108.5,134C 109.448,134.483 110.448,134.649 111.5,134.5C 108.947,136.597 106.614,138.93 104.5,141.5C 104.448,139.097 104.781,136.764 105.5,134.5C 110.854,127.758 116.187,121.092 121.5,114.5C 126.185,110.81 130.852,107.143 135.5,103.5 Z"/></g>
<g><path style="opacity:0.663" fill="#ae6ec1" d="M 490.5,137.5 C 485.47,134.382 480.137,132.049 474.5,130.5C 472.167,130.5 469.833,130.5 467.5,130.5C 465.102,130.259 463.102,130.926 461.5,132.5C 459.772,133.379 457.939,134.046 456,134.5C 454.93,134.472 454.097,134.139 453.5,133.5C 465.819,126.54 477.819,127.04 489.5,135C 490.252,135.671 490.586,136.504 490.5,137.5 Z"/></g>
<g><path style="opacity:1" fill="#bf68d8" d="M 467.5,130.5 C 469.833,130.5 472.167,130.5 474.5,130.5C 473.209,131.473 473.209,132.473 474.5,133.5C 476.045,134.452 477.712,134.785 479.5,134.5C 479.714,136.144 479.38,137.644 478.5,139C 480.641,140.308 482.641,141.808 484.5,143.5C 485.5,185.828 485.833,228.161 485.5,270.5C 487.346,270.222 488.68,270.889 489.5,272.5C 486.802,275.595 483.968,275.928 481,273.5C 480.558,276.305 481.058,278.972 482.5,281.5C 481.352,283.761 480.852,286.095 481,288.5C 482.356,289.38 483.856,289.714 485.5,289.5C 482.755,293.037 479.088,294.704 474.5,294.5C 476.078,292.682 475.578,291.682 473,291.5C 470.24,291.323 467.407,290.99 464.5,290.5C 466.76,290.767 469.093,290.267 471.5,289C 468.972,288.331 468.972,287.498 471.5,286.5C 472.5,239.171 472.833,191.838 472.5,144.5C 467.342,143.516 467.342,142.683 472.5,142C 471.672,141.085 470.672,140.419 469.5,140C 471.577,139.808 473.577,139.308 475.5,138.5C 472.316,137.797 470.816,135.797 471,132.5C 469.698,131.915 468.531,131.249 467.5,130.5 Z"/></g>
<g><path style="opacity:1" fill="#8d52e1" d="M 377.5,104.5 C 378.94,107.069 380.774,109.403 383,111.5C 383.494,113.134 383.66,114.801 383.5,116.5C 384.5,116.5 385.5,116.5 386.5,116.5C 385.916,119.285 386.916,120.952 389.5,121.5C 390.5,121.833 391.167,122.5 391.5,123.5C 390.876,123.917 390.543,124.584 390.5,125.5C 392.311,129.986 393.311,134.653 393.5,139.5C 392.178,139.67 391.011,139.337 390,138.5C 389.415,140.129 388.581,141.629 387.5,143C 388.424,144.811 389.257,144.645 390,142.5C 390.71,143.973 391.876,144.64 393.5,144.5C 393.623,139.132 394.623,138.632 396.5,143C 393.006,144.984 392.006,147.817 393.5,151.5C 393.833,151.167 394.167,150.833 394.5,150.5C 393.754,149.264 393.421,147.93 393.5,146.5C 394.675,146.281 395.675,146.614 396.5,147.5C 395.346,167.457 395.179,187.457 396,207.5C 397.016,208.634 397.683,208.301 398,206.5C 397.691,223.484 398.024,240.484 399,257.5C 400.356,258.38 401.856,258.714 403.5,258.5C 403.649,259.552 403.483,260.552 403,261.5C 401.644,260.62 400.144,260.286 398.5,260.5C 398.5,261.5 398.5,262.5 398.5,263.5C 399.5,263.5 400.5,263.5 401.5,263.5C 401.049,267.104 402.049,270.104 404.5,272.5C 403.167,275.5 401.833,278.5 400.5,281.5C 399.624,281.369 398.957,281.702 398.5,282.5C 396.337,288.49 393.171,293.823 389,298.5C 388.51,299.793 388.343,301.127 388.5,302.5C 387.127,302.343 385.793,302.51 384.5,303C 385.861,304.584 386.528,306.418 386.5,308.5C 385.167,308.5 383.833,308.5 382.5,308.5C 382.61,312.61 381.61,316.277 379.5,319.5C 378.325,319.719 377.325,319.386 376.5,318.5C 377.681,316.802 377.681,315.135 376.5,313.5C 375.548,315.045 375.215,316.712 375.5,318.5C 374.734,316.316 374.067,313.982 373.5,311.5C 374.668,309.783 376.335,309.116 378.5,309.5C 378.528,307.418 377.861,305.584 376.5,304C 377,303.5 377.5,303 378,302.5C 378.167,270.833 378.333,239.167 378.5,207.5C 378.472,172.953 378.138,138.619 377.5,104.5 Z"/></g>
<g><path style="opacity:1" fill="#b865d9" d="M 467.5,130.5 C 468.531,131.249 469.698,131.915 471,132.5C 470.816,135.797 472.316,137.797 475.5,138.5C 473.577,139.308 471.577,139.808 469.5,140C 470.672,140.419 471.672,141.085 472.5,142C 467.342,142.683 467.342,143.516 472.5,144.5C 472.833,191.838 472.5,239.171 471.5,286.5C 468.972,287.498 468.972,288.331 471.5,289C 469.093,290.267 466.76,290.767 464.5,290.5C 467.407,290.99 470.24,291.323 473,291.5C 475.578,291.682 476.078,292.682 474.5,294.5C 470.486,294.666 466.486,294.499 462.5,294C 460.091,292.293 457.425,291.46 454.5,291.5C 452.597,291.204 450.93,290.537 449.5,289.5C 449.97,288.307 450.97,287.64 452.5,287.5C 454.765,288.342 456.932,288.342 459,287.5C 459.205,241.993 459.705,196.493 460.5,151C 460.453,148.111 460.12,145.278 459.5,142.5C 462.107,141.682 464.774,141.182 467.5,141C 465.714,140.804 464.381,139.971 463.5,138.5C 465.862,137.729 468.196,136.895 470.5,136C 467.324,135.111 464.324,133.945 461.5,132.5C 463.102,130.926 465.102,130.259 467.5,130.5 Z"/></g>
<g><path style="opacity:1" fill="#b062da" d="M 461.5,132.5 C 464.324,133.945 467.324,135.111 470.5,136C 468.196,136.895 465.862,137.729 463.5,138.5C 464.381,139.971 465.714,140.804 467.5,141C 464.774,141.182 462.107,141.682 459.5,142.5C 460.12,145.278 460.453,148.111 460.5,151C 459.705,196.493 459.205,241.993 459,287.5C 456.932,288.342 454.765,288.342 452.5,287.5C 450.97,287.64 449.97,288.307 449.5,289.5C 436.95,283.876 424.617,277.876 412.5,271.5C 415.393,272.523 418.226,272.523 421,271.5C 421.537,274.763 423.204,275.43 426,273.5C 427.447,273.945 428.78,274.612 430,275.5C 431.758,273.231 433.592,273.065 435.5,275C 434.437,276.188 433.103,276.688 431.5,276.5C 431.281,277.675 431.614,278.675 432.5,279.5C 435.087,280.415 437.587,281.415 440,282.5C 441.376,282.316 442.209,281.649 442.5,280.5C 443.93,280.579 445.264,280.246 446.5,279.5C 446.132,281.506 446.632,283.506 448,285.5C 448.667,283.167 448.667,280.833 448,278.5C 446.053,277.89 444.219,277.057 442.5,276C 443.167,275.333 443.833,274.667 444.5,274C 438.195,272.617 438.528,271.45 445.5,270.5C 445.333,239.165 445.5,207.832 446,176.5C 446.414,176.043 446.914,175.709 447.5,175.5C 447.833,172.833 448.167,170.167 448.5,167.5C 447.612,159.463 447.278,151.463 447.5,143.5C 438.552,146.802 429.218,149.135 419.5,150.5C 430.768,144.866 442.101,139.199 453.5,133.5C 454.097,134.139 454.93,134.472 456,134.5C 457.939,134.046 459.772,133.379 461.5,132.5 Z"/></g>
<g><path style="opacity:1" fill="#c36bd5" d="M 474.5,130.5 C 480.137,132.049 485.47,134.382 490.5,137.5C 493.896,140.291 495.729,143.958 496,148.5C 496.5,156.493 496.666,164.493 496.5,172.5C 495.883,172.389 495.383,172.056 495,171.5C 494.667,207.833 494.333,244.167 494,280.5C 492.561,282.275 491.561,284.275 491,286.5C 489.736,288.607 487.903,289.607 485.5,289.5C 483.856,289.714 482.356,289.38 481,288.5C 480.852,286.095 481.352,283.761 482.5,281.5C 481.058,278.972 480.558,276.305 481,273.5C 483.968,275.928 486.802,275.595 489.5,272.5C 488.68,270.889 487.346,270.222 485.5,270.5C 485.833,228.161 485.5,185.828 484.5,143.5C 482.641,141.808 480.641,140.308 478.5,139C 479.38,137.644 479.714,136.144 479.5,134.5C 477.712,134.785 476.045,134.452 474.5,133.5C 473.209,132.473 473.209,131.473 474.5,130.5 Z"/></g>
<g><path style="opacity:1" fill="#3e30d6" d="M 58.5,121.5 C 58.1347,126.379 57.1347,131.046 55.5,135.5C 54.5,135.5 53.5,135.5 52.5,135.5C 53.5362,139.926 53.3696,144.26 52,148.5C 50.4878,149.257 49.1545,150.257 48,151.5C 46.3308,155.298 45.1642,159.298 44.5,163.5C 43.3112,165.363 41.9779,167.03 40.5,168.5C 44.0152,151.816 50.0152,136.149 58.5,121.5 Z"/></g>
<g><path style="opacity:1" fill="#5641a3" d="M 337.5,127.5 C 339.417,128.909 341.25,130.576 343,132.5C 343.165,136.548 344.998,139.215 348.5,140.5C 348.338,142.527 348.505,144.527 349,146.5C 352.283,150.281 354.45,154.614 355.5,159.5C 353.613,157.42 351.946,155.086 350.5,152.5C 348.637,149.431 347.303,146.098 346.5,142.5C 345.5,142.5 344.5,142.5 343.5,142.5C 343.657,141.127 343.49,139.793 343,138.5C 340.628,135.09 338.795,131.423 337.5,127.5 Z"/></g>
<g><path style="opacity:0.906" fill="#3f32b7" d="M 105.5,134.5 C 104.781,136.764 104.448,139.097 104.5,141.5C 101.099,144.635 98.4327,148.302 96.5,152.5C 96.2011,150.396 96.5344,148.396 97.5,146.5C 100.165,142.448 102.832,138.448 105.5,134.5 Z"/></g>
<g><path style="opacity:1" fill="#a65edb" d="M 393.5,128.5 C 397.962,137.102 401.629,146.102 404.5,155.5C 409.579,154.13 414.579,152.464 419.5,150.5C 429.218,149.135 438.552,146.802 447.5,143.5C 447.278,151.463 447.612,159.463 448.5,167.5C 448.167,170.167 447.833,172.833 447.5,175.5C 446.914,175.709 446.414,176.043 446,176.5C 445.5,207.832 445.333,239.165 445.5,270.5C 438.528,271.45 438.195,272.617 444.5,274C 443.833,274.667 443.167,275.333 442.5,276C 444.219,277.057 446.053,277.89 448,278.5C 448.667,280.833 448.667,283.167 448,285.5C 446.632,283.506 446.132,281.506 446.5,279.5C 445.264,280.246 443.93,280.579 442.5,280.5C 439.872,279.745 439.205,278.245 440.5,276C 439.5,275.167 438.5,274.333 437.5,273.5C 437.709,272.914 438.043,272.414 438.5,272C 436.26,271.023 433.927,270.523 431.5,270.5C 431.5,233.5 431.5,196.5 431.5,159.5C 429.076,159.808 426.743,159.474 424.5,158.5C 426.484,157.294 428.484,157.294 430.5,158.5C 431.452,156.955 431.785,155.288 431.5,153.5C 428.512,153.439 425.679,154.105 423,155.5C 420.195,153.55 417.195,153.217 414,154.5C 413.5,154.667 413,154.833 412.5,155C 413.38,156.356 413.714,157.856 413.5,159.5C 411.952,159.179 411.285,158.179 411.5,156.5C 409.712,156.215 408.045,156.548 406.5,157.5C 407.025,158.192 407.692,158.692 408.5,159C 405.22,159.263 402.22,158.429 399.5,156.5C 400.325,155.614 401.325,155.281 402.5,155.5C 400.716,148.883 398.216,142.55 395,136.5C 394.178,133.883 393.678,131.216 393.5,128.5 Z"/></g>
<g><path style="opacity:1" fill="#9656df" d="M 391.5,123.5 C 392.441,125.05 393.107,126.716 393.5,128.5C 393.678,131.216 394.178,133.883 395,136.5C 398.216,142.55 400.716,148.883 402.5,155.5C 401.325,155.281 400.325,155.614 399.5,156.5C 402.22,158.429 405.22,159.263 408.5,159C 407.692,158.692 407.025,158.192 406.5,157.5C 408.045,156.548 409.712,156.215 411.5,156.5C 411.285,158.179 411.952,159.179 413.5,159.5C 413.209,182.183 413.542,204.849 414.5,227.5C 413.934,236.73 413.267,245.897 412.5,255C 417.575,258.761 416.909,261.594 410.5,263.5C 410.5,265.167 410.5,266.833 410.5,268.5C 408.901,268.232 407.568,268.566 406.5,269.5C 405.094,269.973 404.427,270.973 404.5,272.5C 402.049,270.104 401.049,267.104 401.5,263.5C 400.5,263.5 399.5,263.5 398.5,263.5C 398.5,262.5 398.5,261.5 398.5,260.5C 400.144,260.286 401.644,260.62 403,261.5C 403.483,260.552 403.649,259.552 403.5,258.5C 401.856,258.714 400.356,258.38 399,257.5C 398.024,240.484 397.691,223.484 398,206.5C 397.683,208.301 397.016,208.634 396,207.5C 395.179,187.457 395.346,167.457 396.5,147.5C 395.675,146.614 394.675,146.281 393.5,146.5C 393.421,147.93 393.754,149.264 394.5,150.5C 394.167,150.833 393.833,151.167 393.5,151.5C 392.006,147.817 393.006,144.984 396.5,143C 394.623,138.632 393.623,139.132 393.5,144.5C 391.876,144.64 390.71,143.973 390,142.5C 389.257,144.645 388.424,144.811 387.5,143C 388.581,141.629 389.415,140.129 390,138.5C 391.011,139.337 392.178,139.67 393.5,139.5C 393.311,134.653 392.311,129.986 390.5,125.5C 390.543,124.584 390.876,123.917 391.5,123.5 Z"/></g>
<g><path style="opacity:1" fill="#a25bdd" d="M 442.5,280.5 C 442.209,281.649 441.376,282.316 440,282.5C 437.587,281.415 435.087,280.415 432.5,279.5C 431.614,278.675 431.281,277.675 431.5,276.5C 433.103,276.688 434.437,276.188 435.5,275C 433.592,273.065 431.758,273.231 430,275.5C 428.78,274.612 427.447,273.945 426,273.5C 423.204,275.43 421.537,274.763 421,271.5C 418.226,272.523 415.393,272.523 412.5,271.5C 410.315,271.296 408.315,270.63 406.5,269.5C 407.568,268.566 408.901,268.232 410.5,268.5C 410.5,266.833 410.5,265.167 410.5,263.5C 416.909,261.594 417.575,258.761 412.5,255C 413.267,245.897 413.934,236.73 414.5,227.5C 413.542,204.849 413.209,182.183 413.5,159.5C 413.714,157.856 413.38,156.356 412.5,155C 413,154.833 413.5,154.667 414,154.5C 417.195,153.217 420.195,153.55 423,155.5C 425.679,154.105 428.512,153.439 431.5,153.5C 431.785,155.288 431.452,156.955 430.5,158.5C 428.484,157.294 426.484,157.294 424.5,158.5C 426.743,159.474 429.076,159.808 431.5,159.5C 431.5,196.5 431.5,233.5 431.5,270.5C 433.927,270.523 436.26,271.023 438.5,272C 438.043,272.414 437.709,272.914 437.5,273.5C 438.5,274.333 439.5,275.167 440.5,276C 439.205,278.245 439.872,279.745 442.5,280.5 Z"/></g>
<g><path style="opacity:1" fill="#4d438e" d="M 350.5,152.5 C 351.946,155.086 353.613,157.42 355.5,159.5C 357.519,170.239 360.186,180.905 363.5,191.5C 364.499,202.146 364.832,212.813 364.5,223.5C 364.626,232.333 363.459,241 361,249.5C 356.08,259.995 351.747,270.662 348,281.5C 346.778,284.411 344.945,286.744 342.5,288.5C 344.159,284.529 345.826,280.529 347.5,276.5C 348.79,275.942 349.623,274.942 350,273.5C 352.557,261.345 354.223,249.012 355,236.5C 355.249,235.376 355.749,234.376 356.5,233.5C 356.833,233.833 357.167,234.167 357.5,234.5C 358.018,237.316 358.851,239.982 360,242.5C 363.817,226.654 364.484,210.654 362,194.5C 361.683,196.301 361.016,196.634 360,195.5C 359.727,190.771 359.061,186.104 358,181.5C 356.851,183.99 355.684,186.49 354.5,189C 355.032,191.02 356.365,191.853 358.5,191.5C 358.658,194.545 357.991,197.379 356.5,200C 356.588,201.946 356.921,203.946 357.5,206C 356.796,209.128 356.296,212.294 356,215.5C 355.667,214.833 355.333,214.167 355,213.5C 353.94,206.219 353.106,198.886 352.5,191.5C 349.893,190.059 348.226,187.893 347.5,185C 348.237,182.201 349.07,182.034 350,184.5C 353.836,179.938 353.336,177.104 348.5,176C 349.059,175.275 349.392,174.442 349.5,173.5C 349.824,171.431 350.658,171.098 352,172.5C 352.359,169.456 353.026,169.122 354,171.5C 354.857,168.449 354.19,165.783 352,163.5C 351.581,164.672 350.915,165.672 350,166.5C 349.234,164.067 347.734,162.234 345.5,161C 346.337,159.989 346.67,158.822 346.5,157.5C 349.91,157.616 351.244,155.95 350.5,152.5 Z"/></g>
<g><path style="opacity:0.392" fill="#4234b5" d="M 92.5,162.5 C 89.5685,172.192 86.9018,181.859 84.5,191.5C 84.5886,183.944 85.9219,176.61 88.5,169.5C 89.1164,166.581 90.4498,164.248 92.5,162.5 Z"/></g>
<g><path style="opacity:1" fill="#5742a1" d="M 355.5,159.5 C 356.586,159.62 357.253,160.287 357.5,161.5C 359.158,166.37 360.824,171.037 362.5,175.5C 363.987,183.779 364.987,192.113 365.5,200.5C 365.825,208.352 365.492,216.018 364.5,223.5C 364.832,212.813 364.499,202.146 363.5,191.5C 360.186,180.905 357.519,170.239 355.5,159.5 Z"/></g>
<g><path style="opacity:0.49" fill="#3b2fb5" d="M 40.5,168.5 C 40.8242,172.555 40.4909,176.555 39.5,180.5C 38.2831,183.891 37.2831,187.224 36.5,190.5C 36.7003,182.842 38.0337,175.508 40.5,168.5 Z"/></g>
<g><path style="opacity:0.482" fill="#b071c0" d="M 496.5,172.5 C 496.667,207.502 496.5,242.502 496,277.5C 493.869,287.631 487.703,293.797 477.5,296C 469.089,297.611 461.422,296.111 454.5,291.5C 457.425,291.46 460.091,292.293 462.5,294C 466.486,294.499 470.486,294.666 474.5,294.5C 479.088,294.704 482.755,293.037 485.5,289.5C 487.903,289.607 489.736,288.607 491,286.5C 491.561,284.275 492.561,282.275 494,280.5C 494.333,244.167 494.667,207.833 495,171.5C 495.383,172.056 495.883,172.389 496.5,172.5 Z"/></g>
<g><path style="opacity:1" fill="#ae62ce" d="M 244.5,200.5 C 243.811,201.774 242.977,201.774 242,200.5C 241.667,201.167 241.333,201.833 241,202.5C 237.014,200.299 232.848,199.965 228.5,201.5C 227.167,200.5 225.833,199.5 224.5,198.5C 219.138,199.337 213.805,200.337 208.5,201.5C 208.137,199.089 209.137,197.589 211.5,197C 210.906,196.536 210.239,196.369 209.5,196.5C 211.36,195.061 213.027,193.395 214.5,191.5C 223.74,187.127 232.406,188.293 240.5,195C 242.439,196.432 243.772,198.265 244.5,200.5 Z"/></g>
<g><path style="opacity:1" fill="#ae62cd" d="M 175.5,200.5 C 172.682,199.603 169.849,199.936 167,201.5C 164.221,200.776 161.554,199.776 159,198.5C 153.928,199.471 148.762,199.805 143.5,199.5C 143.5,198.5 143.5,197.5 143.5,196.5C 142.127,196.343 140.793,196.51 139.5,197C 138.295,198.376 136.962,199.542 135.5,200.5C 140.017,192.816 146.851,188.816 156,188.5C 164.738,189.108 171.238,193.108 175.5,200.5 Z"/></g>
<g><path style="opacity:1" fill="#ab5fcd" d="M 313.5,201.5 C 311.797,200.34 311.131,201.007 311.5,203.5C 309.127,202.706 306.794,201.706 304.5,200.5C 303.749,201.376 303.249,202.376 303,203.5C 297.713,202.787 292.379,202.12 287,201.5C 285.108,204.39 284.275,204.056 284.5,200.5C 283.167,200.5 281.833,200.5 280.5,200.5C 280.649,201.552 280.483,202.552 280,203.5C 278.333,202.167 276.667,200.833 275,199.5C 274.292,200.381 273.458,201.047 272.5,201.5C 281.18,188.461 292.513,185.627 306.5,193C 309.447,195.436 311.78,198.269 313.5,201.5 Z"/></g>
<g><path style="opacity:1" fill="#9254c6" d="M 313.5,201.5 C 314.092,204.127 314.425,206.794 314.5,209.5C 313.839,208.282 313.172,206.949 312.5,205.5C 310.932,207.2 309.099,208.534 307,209.5C 306.369,208.128 305.702,206.795 305,205.5C 297.678,206.798 290.344,206.798 283,205.5C 281.674,205.755 280.674,206.422 280,207.5C 278.424,208.013 277.091,207.346 276,205.5C 274.433,206.856 272.6,207.523 270.5,207.5C 270.5,208.833 270.5,210.167 270.5,211.5C 270.795,213.735 270.461,215.735 269.5,217.5C 269.335,213.818 269.501,210.152 270,206.5C 270.374,204.509 271.207,202.842 272.5,201.5C 273.458,201.047 274.292,200.381 275,199.5C 276.667,200.833 278.333,202.167 280,203.5C 280.483,202.552 280.649,201.552 280.5,200.5C 281.833,200.5 283.167,200.5 284.5,200.5C 284.275,204.056 285.108,204.39 287,201.5C 292.379,202.12 297.713,202.787 303,203.5C 303.249,202.376 303.749,201.376 304.5,200.5C 306.794,201.706 309.127,202.706 311.5,203.5C 311.131,201.007 311.797,200.34 313.5,201.5 Z"/></g>
<g><path style="opacity:0.496" fill="#3730b0" d="M 36.5,190.5 C 37.1389,200.227 36.4722,209.56 34.5,218.5C 34.3449,208.959 35.0116,199.626 36.5,190.5 Z"/></g>
<g><path style="opacity:1" fill="#9152c8" d="M 209.5,196.5 C 210.239,196.369 210.906,196.536 211.5,197C 209.137,197.589 208.137,199.089 208.5,201.5C 213.805,200.337 219.138,199.337 224.5,198.5C 225.833,199.5 227.167,200.5 228.5,201.5C 232.848,199.965 237.014,200.299 241,202.5C 241.333,201.833 241.667,201.167 242,200.5C 242.977,201.774 243.811,201.774 244.5,200.5C 245.338,200.842 245.672,201.508 245.5,202.5C 245.366,204.292 245.699,205.958 246.5,207.5C 245.571,208.936 244.405,210.269 243,211.5C 231.242,210.678 219.409,210.178 207.5,210C 205.65,209.31 204.316,208.144 203.5,206.5C 204.214,202.311 206.214,198.978 209.5,196.5 Z"/></g>
<g><path style="opacity:1" fill="#8c50c6" d="M 175.5,200.5 C 176.102,204.301 177.102,207.968 178.5,211.5C 163.556,212.749 148.556,212.749 133.5,211.5C 134.497,208.672 134.497,206.005 133.5,203.5C 133.932,202.29 134.599,201.29 135.5,200.5C 136.962,199.542 138.295,198.376 139.5,197C 140.793,196.51 142.127,196.343 143.5,196.5C 143.5,197.5 143.5,198.5 143.5,199.5C 148.762,199.805 153.928,199.471 159,198.5C 161.554,199.776 164.221,200.776 167,201.5C 169.849,199.936 172.682,199.603 175.5,200.5 Z"/></g>
<g><path style="opacity:0.141" fill="#815aa5" d="M 214.5,191.5 C 213.027,193.395 211.36,195.061 209.5,196.5C 206.214,198.978 204.214,202.311 203.5,206.5C 202.778,206.918 202.278,207.584 202,208.5C 201.502,211.482 201.335,214.482 201.5,217.5C 199.458,207.705 202.458,199.538 210.5,193C 211.745,192.209 213.078,191.709 214.5,191.5 Z"/></g>
<g><path style="opacity:1" fill="#7f4ac3" d="M 314.5,209.5 C 314.5,210.167 314.5,210.833 314.5,211.5C 314.539,212.756 314.039,213.756 313,214.5C 311.559,213.74 310.059,213.074 308.5,212.5C 307.086,213.624 305.586,214.624 304,215.5C 299.748,214.848 295.415,214.514 291,214.5C 286.411,214.536 282.077,215.202 278,216.5C 276.575,215.788 275.075,215.621 273.5,216C 272.219,214.591 271.219,213.091 270.5,211.5C 270.5,210.167 270.5,208.833 270.5,207.5C 272.6,207.523 274.433,206.856 276,205.5C 277.091,207.346 278.424,208.013 280,207.5C 280.674,206.422 281.674,205.755 283,205.5C 290.344,206.798 297.678,206.798 305,205.5C 305.702,206.795 306.369,208.128 307,209.5C 309.099,208.534 310.932,207.2 312.5,205.5C 313.172,206.949 313.839,208.282 314.5,209.5 Z"/></g>
<g><path style="opacity:1" fill="#7344bf" d="M 203.5,206.5 C 204.316,208.144 205.65,209.31 207.5,210C 219.409,210.178 231.242,210.678 243,211.5C 244.405,210.269 245.571,208.936 246.5,207.5C 246.5,210.167 246.5,212.833 246.5,215.5C 244.233,216.423 241.9,217.256 239.5,218C 228.121,218.188 216.787,218.688 205.5,219.5C 204.833,218.833 204.167,218.167 203.5,217.5C 203.167,217.833 202.833,218.167 202.5,218.5C 203.985,221.458 205.319,224.458 206.5,227.5C 203.259,225.017 201.592,221.684 201.5,217.5C 201.335,214.482 201.502,211.482 202,208.5C 202.278,207.584 202.778,206.918 203.5,206.5 Z"/></g>
<g><path style="opacity:1" fill="#6a3fbd" d="M 133.5,203.5 C 134.497,206.005 134.497,208.672 133.5,211.5C 148.556,212.749 163.556,212.749 178.5,211.5C 177.594,214.436 176.928,217.436 176.5,220.5C 165.561,221.146 154.561,221.812 143.5,222.5C 142.478,223.354 141.645,224.354 141,225.5C 139.484,222.949 138.651,223.282 138.5,226.5C 137.363,225.211 136.03,224.211 134.5,223.5C 130.957,217.019 130.624,210.352 133.5,203.5 Z"/></g>
<g><path style="opacity:1" fill="#4d31b4" d="M 176.5,220.5 C 176.033,223.297 174.367,224.631 171.5,224.5C 171.5,226.167 171.5,227.833 171.5,229.5C 170.167,229.5 168.833,229.5 167.5,229.5C 167.5,230.5 167.5,231.5 167.5,232.5C 161.517,233.465 155.517,233.965 149.5,234C 145.663,231.649 141.997,229.149 138.5,226.5C 138.651,223.282 139.484,222.949 141,225.5C 141.645,224.354 142.478,223.354 143.5,222.5C 154.561,221.812 165.561,221.146 176.5,220.5 Z"/></g>
<g><path style="opacity:1" fill="#5032b4" d="M 246.5,215.5 C 246.613,218.049 245.946,220.382 244.5,222.5C 241.156,227.177 237.156,231.177 232.5,234.5C 222.162,238.275 213.495,235.942 206.5,227.5C 205.319,224.458 203.985,221.458 202.5,218.5C 202.833,218.167 203.167,217.833 203.5,217.5C 204.167,218.167 204.833,218.833 205.5,219.5C 216.787,218.688 228.121,218.188 239.5,218C 241.9,217.256 244.233,216.423 246.5,215.5 Z"/></g>
<g><path style="opacity:1" fill="#603ab9" d="M 270.5,211.5 C 271.219,213.091 272.219,214.591 273.5,216C 275.075,215.621 276.575,215.788 278,216.5C 282.077,215.202 286.411,214.536 291,214.5C 295.415,214.514 299.748,214.848 304,215.5C 305.586,214.624 307.086,213.624 308.5,212.5C 310.059,213.074 311.559,213.74 313,214.5C 314.039,213.756 314.539,212.756 314.5,211.5C 315.598,212.601 315.765,213.934 315,215.5C 313.791,219.076 312.291,222.409 310.5,225.5C 308.409,225.318 306.409,225.652 304.5,226.5C 300.771,224.003 296.604,223.003 292,223.5C 288.378,223.669 284.878,224.336 281.5,225.5C 280.259,224.963 279.092,224.296 278,223.5C 277.5,223.833 277,224.167 276.5,224.5C 277.747,226.323 278.414,228.323 278.5,230.5C 276.983,230.489 275.816,229.823 275,228.5C 272.626,225.086 270.793,221.419 269.5,217.5C 270.461,215.735 270.795,213.735 270.5,211.5 Z"/></g>
<g><path style="opacity:0.634" fill="#3d33b2" d="M 84.5,191.5 C 83.718,201.801 83.3847,211.967 83.5,222C 84.965,231.831 86.6317,241.664 88.5,251.5C 86.2396,245.074 84.4062,238.408 83,231.5C 82.3333,220.833 82.3333,210.167 83,199.5C 83.1829,196.635 83.6829,193.969 84.5,191.5 Z"/></g>
<g><path style="opacity:1" fill="#4a3093" d="M 245.5,202.5 C 250.388,213.873 248.054,223.706 238.5,232C 236.783,233.559 234.783,234.392 232.5,234.5C 237.156,231.177 241.156,227.177 244.5,222.5C 245.946,220.382 246.613,218.049 246.5,215.5C 246.5,212.833 246.5,210.167 246.5,207.5C 245.699,205.958 245.366,204.292 245.5,202.5 Z"/></g>
<g><path style="opacity:1" fill="#462db4" d="M 310.5,225.5 C 310.179,227.048 309.179,227.715 307.5,227.5C 307.5,228.5 307.5,229.5 307.5,230.5C 304.493,230.365 301.993,231.365 300,233.5C 292.338,235.459 285.171,234.459 278.5,230.5C 278.414,228.323 277.747,226.323 276.5,224.5C 277,224.167 277.5,223.833 278,223.5C 279.092,224.296 280.259,224.963 281.5,225.5C 284.878,224.336 288.378,223.669 292,223.5C 296.604,223.003 300.771,224.003 304.5,226.5C 306.409,225.652 308.409,225.318 310.5,225.5 Z"/></g>
<g><path style="opacity:0.353" fill="#39268f" d="M 175.5,200.5 C 181.06,209.975 180.56,219.309 174,228.5C 164.062,237.641 153.228,238.808 141.5,232C 138.577,229.584 136.243,226.75 134.5,223.5C 136.03,224.211 137.363,225.211 138.5,226.5C 141.997,229.149 145.663,231.649 149.5,234C 155.517,233.965 161.517,233.465 167.5,232.5C 167.5,231.5 167.5,230.5 167.5,229.5C 168.833,229.5 170.167,229.5 171.5,229.5C 171.5,227.833 171.5,226.167 171.5,224.5C 174.367,224.631 176.033,223.297 176.5,220.5C 176.928,217.436 177.594,214.436 178.5,211.5C 177.102,207.968 176.102,204.301 175.5,200.5 Z"/></g>
<g><path style="opacity:0.671" fill="#3b258b" d="M 313.5,201.5 C 318.656,212.361 316.989,222.195 308.5,231C 301.236,236.549 293.236,237.883 284.5,235C 281.894,234.208 279.894,232.708 278.5,230.5C 285.171,234.459 292.338,235.459 300,233.5C 301.993,231.365 304.493,230.365 307.5,230.5C 307.5,229.5 307.5,228.5 307.5,227.5C 309.179,227.715 310.179,227.048 310.5,225.5C 312.291,222.409 313.791,219.076 315,215.5C 315.765,213.934 315.598,212.601 314.5,211.5C 314.5,210.833 314.5,210.167 314.5,209.5C 314.425,206.794 314.092,204.127 313.5,201.5 Z"/></g>
<g><path style="opacity:0.992" fill="#3c31c4" d="M 34.5,219.5 C 36.0468,224.909 37.5468,230.576 39,236.5C 39.9897,245.882 41.1563,255.215 42.5,264.5C 37.8044,249.97 35.1378,234.97 34.5,219.5 Z"/></g>
<g><path style="opacity:0.804" fill="#3b31b4" d="M 88.5,251.5 C 91.8129,259.758 95.1462,268.091 98.5,276.5C 97.6236,276.631 96.9569,276.298 96.5,275.5C 95.4805,273.396 94.4805,271.396 93.5,269.5C 91.0742,263.701 89.4075,257.701 88.5,251.5 Z"/></g>
<g><path style="opacity:1" fill="#6948c4" d="M 365.5,200.5 C 366.166,204.82 366.499,209.32 366.5,214C 367.555,237.904 362.222,260.071 350.5,280.5C 349.992,283.852 348.658,286.852 346.5,289.5C 342.558,291.938 339.058,294.938 336,298.5C 335.505,300.473 335.338,302.473 335.5,304.5C 334.448,304.351 333.448,304.517 332.5,305C 330.917,306.758 329.25,308.258 327.5,309.5C 326.697,308.577 326.53,307.577 327,306.5C 332.399,300.608 337.566,294.608 342.5,288.5C 344.945,286.744 346.778,284.411 348,281.5C 351.747,270.662 356.08,259.995 361,249.5C 363.459,241 364.626,232.333 364.5,223.5C 365.492,216.018 365.825,208.352 365.5,200.5 Z"/></g>
<g><path style="opacity:1" fill="#3d2fd8" d="M 93.5,269.5 C 94.4805,271.396 95.4805,273.396 96.5,275.5C 96.9569,276.298 97.6236,276.631 98.5,276.5C 108.532,295.203 121.865,311.203 138.5,324.5C 132.777,324.691 129.444,322.024 128.5,316.5C 127.022,316.762 125.689,316.429 124.5,315.5C 123.631,313.132 121.965,311.632 119.5,311C 115.728,305.226 111.228,300.06 106,295.5C 105.878,291.905 104.044,290.239 100.5,290.5C 100.5,289.167 100.5,287.833 100.5,286.5C 98.4078,286.439 96.9078,285.439 96,283.5C 94.8485,278.874 94.0152,274.207 93.5,269.5 Z"/></g>
<g><path style="opacity:1" fill="#3e33ca" d="M 42.5,264.5 C 43.4286,265.936 44.5952,267.269 46,268.5C 47.9182,276.437 51.0849,283.771 55.5,290.5C 55.0688,291.293 54.7355,292.127 54.5,293C 56.0028,294.921 56.6695,297.088 56.5,299.5C 50.28,288.517 45.6133,276.851 42.5,264.5 Z"/></g>
<g><path style="opacity:1" fill="#7347e4" d="M 348.5,361.5 C 344.067,368.575 338.401,374.575 331.5,379.5C 331.5,378.167 331.5,376.833 331.5,375.5C 330.07,375.421 328.736,375.754 327.5,376.5C 326.692,376.192 326.025,375.692 325.5,375C 326.905,373.731 328.571,373.231 330.5,373.5C 330.08,371.326 330.08,369.326 330.5,367.5C 333.535,369.301 336.869,369.968 340.5,369.5C 339.971,365.816 340.971,362.65 343.5,360C 343.167,359.5 342.833,359 342.5,358.5C 340.833,358.5 339.167,358.5 337.5,358.5C 339.401,359.935 339.734,361.602 338.5,363.5C 337.476,362.147 336.143,361.48 334.5,361.5C 334.703,363.638 335.703,365.305 337.5,366.5C 336.609,367.59 335.609,367.59 334.5,366.5C 333.686,364.234 333.186,361.9 333,359.5C 332.5,346.504 332.333,333.504 332.5,320.5C 334.103,320.688 335.437,320.188 336.5,319C 335.095,317.731 333.429,317.231 331.5,317.5C 331.5,315.167 331.5,312.833 331.5,310.5C 330.178,310.33 329.011,310.663 328,311.5C 326.748,314.014 326.248,316.68 326.5,319.5C 324.876,319.64 323.71,318.973 323,317.5C 318.461,322.404 312.961,325.737 306.5,327.5C 313.131,322.204 319.465,316.537 325.5,310.5C 326.167,310.167 326.833,309.833 327.5,309.5C 329.25,308.258 330.917,306.758 332.5,305C 333.448,304.517 334.448,304.351 335.5,304.5C 335.338,302.473 335.505,300.473 336,298.5C 339.058,294.938 342.558,291.938 346.5,289.5C 348.658,286.852 349.992,283.852 350.5,280.5C 352.402,279.489 354.402,279.322 356.5,280C 354.913,281.845 353.579,283.845 352.5,286C 353.645,302.802 353.812,319.635 353,336.5C 352.5,337 352,337.5 351.5,338C 352.954,340.244 354.288,342.577 355.5,345C 352.371,345.117 351.205,346.617 352,349.5C 352.71,348.027 353.876,347.36 355.5,347.5C 355.55,349.59 354.55,350.923 352.5,351.5C 351.548,353.045 351.215,354.712 351.5,356.5C 350.5,356.5 349.5,356.5 348.5,356.5C 348.5,358.167 348.5,359.833 348.5,361.5 Z"/></g>
<g><path style="opacity:0.314" fill="#3a297d" d="M 342.5,288.5 C 337.566,294.608 332.399,300.608 327,306.5C 326.53,307.577 326.697,308.577 327.5,309.5C 326.833,309.833 326.167,310.167 325.5,310.5C 324.624,310.631 323.957,310.298 323.5,309.5C 329.154,301.839 335.487,294.839 342.5,288.5 Z"/></g>
<g><path style="opacity:1" fill="#8053c8" d="M 400.5,281.5 C 392.388,301.736 381.721,320.402 368.5,337.5C 367.957,337.44 367.624,337.107 367.5,336.5C 368.549,331.457 370.882,327.124 374.5,323.5C 375.452,321.955 375.785,320.288 375.5,318.5C 375.215,316.712 375.548,315.045 376.5,313.5C 377.681,315.135 377.681,316.802 376.5,318.5C 377.325,319.386 378.325,319.719 379.5,319.5C 381.61,316.277 382.61,312.61 382.5,308.5C 383.833,308.5 385.167,308.5 386.5,308.5C 386.528,306.418 385.861,304.584 384.5,303C 385.793,302.51 387.127,302.343 388.5,302.5C 388.343,301.127 388.51,299.793 389,298.5C 393.171,293.823 396.337,288.49 398.5,282.5C 398.957,281.702 399.624,281.369 400.5,281.5 Z"/></g>
<g><path style="opacity:0.992" fill="#3d33cd" d="M 56.5,299.5 C 58.4714,300.823 60.4714,302.156 62.5,303.5C 65.1383,309.83 67.805,316.163 70.5,322.5C 64.5811,315.675 59.9145,308.008 56.5,299.5 Z"/></g>
<g><path style="opacity:1" fill="#6a42e7" d="M 331.5,379.5 C 329.856,379.714 328.356,379.38 327,378.5C 325.569,382.95 322.903,386.617 319,389.5C 317.7,388.293 316.2,387.626 314.5,387.5C 313.708,385.743 312.375,384.409 310.5,383.5C 308.977,365.753 309.31,348.086 311.5,330.5C 308.833,330.833 306.167,331.167 303.5,331.5C 304.11,330.609 304.443,329.609 304.5,328.5C 304.842,327.662 305.508,327.328 306.5,327.5C 312.961,325.737 318.461,322.404 323,317.5C 323.71,318.973 324.876,319.64 326.5,319.5C 326.248,316.68 326.748,314.014 328,311.5C 329.011,310.663 330.178,310.33 331.5,310.5C 331.5,312.833 331.5,315.167 331.5,317.5C 333.429,317.231 335.095,317.731 336.5,319C 335.437,320.188 334.103,320.688 332.5,320.5C 332.333,333.504 332.5,346.504 333,359.5C 333.186,361.9 333.686,364.234 334.5,366.5C 335.609,367.59 336.609,367.59 337.5,366.5C 335.703,365.305 334.703,363.638 334.5,361.5C 336.143,361.48 337.476,362.147 338.5,363.5C 339.734,361.602 339.401,359.935 337.5,358.5C 339.167,358.5 340.833,358.5 342.5,358.5C 342.833,359 343.167,359.5 343.5,360C 340.971,362.65 339.971,365.816 340.5,369.5C 336.869,369.968 333.535,369.301 330.5,367.5C 330.08,369.326 330.08,371.326 330.5,373.5C 328.571,373.231 326.905,373.731 325.5,375C 326.025,375.692 326.692,376.192 327.5,376.5C 328.736,375.754 330.07,375.421 331.5,375.5C 331.5,376.833 331.5,378.167 331.5,379.5 Z"/></g>
<g><path style="opacity:1" fill="#3e30d1" d="M 70.5,322.5 C 71.5832,322.539 72.5832,322.873 73.5,323.5C 75.0931,325.806 76.5931,328.139 78,330.5C 78.3333,329.833 78.6667,329.167 79,328.5C 84.6524,331.842 87.9857,336.842 89,343.5C 92.4894,345.97 95.3227,348.97 97.5,352.5C 92.9281,349.437 88.7615,345.77 85,341.5C 79.6727,335.496 74.8394,329.163 70.5,322.5 Z"/></g>
<g><path style="opacity:0.439" fill="#3c35b3" d="M 150.5,332.5 C 155.55,335.692 160.883,338.358 166.5,340.5C 165.399,341.598 164.066,341.765 162.5,341C 157.721,339.022 153.721,336.189 150.5,332.5 Z"/></g>
<g><path style="opacity:1" fill="#5f3de9" d="M 314.5,387.5 C 314.265,388.097 313.765,388.43 313,388.5C 311.469,387.783 310.136,386.783 309,385.5C 308.5,385.833 308,386.167 307.5,386.5C 309.769,389.051 312.436,391.051 315.5,392.5C 311.957,396.423 308.29,396.423 304.5,392.5C 302.889,393.32 302.222,394.654 302.5,396.5C 304.716,396.275 306.383,397.108 307.5,399C 305.754,399.471 304.087,400.138 302.5,401C 302.833,401.333 303.167,401.667 303.5,402C 301.658,401.932 299.991,402.099 298.5,402.5C 297.357,402.092 296.357,401.425 295.5,400.5C 296.807,391.328 297.473,381.994 297.5,372.5C 297.167,363.5 296.833,354.5 296.5,345.5C 292.364,343.553 288.03,343.053 283.5,344C 282.874,344.75 282.374,345.584 282,346.5C 279.156,346.909 276.322,346.909 273.5,346.5C 284.209,342.479 294.209,337.479 303.5,331.5C 306.167,331.167 308.833,330.833 311.5,330.5C 309.31,348.086 308.977,365.753 310.5,383.5C 312.375,384.409 313.708,385.743 314.5,387.5 Z"/></g>
<g><path style="opacity:0.851" fill="#5741c7" d="M 304.5,328.5 C 304.443,329.609 304.11,330.609 303.5,331.5C 294.209,337.479 284.209,342.479 273.5,346.5C 269.074,348.309 264.408,349.309 259.5,349.5C 275.6,344.951 290.6,337.951 304.5,328.5 Z"/></g>
<g><path style="opacity:1" fill="#3d33c4" d="M 169.5,342.5 C 173.987,343.992 178.32,345.658 182.5,347.5C 177.817,346.926 173.15,346.26 168.5,345.5C 168.263,344.209 168.596,343.209 169.5,342.5 Z"/></g>
<g><path style="opacity:1" fill="#5539ea" d="M 298.5,402.5 C 295.285,403.098 292.285,404.432 289.5,406.5C 293.747,408.92 293.414,410.587 288.5,411.5C 287.614,412.325 287.281,413.325 287.5,414.5C 285.801,414.34 284.134,414.506 282.5,415C 281.529,416.481 280.196,417.315 278.5,417.5C 278.5,416.5 278.5,415.5 278.5,414.5C 277.5,414.5 276.5,414.5 275.5,414.5C 275.827,393.924 275.493,373.424 274.5,353C 276.134,352.506 277.801,352.34 279.5,352.5C 279.923,349.757 278.756,348.424 276,348.5C 274.11,348.785 272.777,349.785 272,351.5C 266.649,349.232 262.649,350.565 260,355.5C 259.667,354.5 259.333,353.5 259,352.5C 258.333,353.833 257.667,355.167 257,356.5C 256.517,355.552 256.351,354.552 256.5,353.5C 252.298,353.183 248.298,353.517 244.5,354.5C 243.833,354.5 243.167,354.5 242.5,354.5C 242.5,353.833 242.5,353.167 242.5,352.5C 247.975,351.141 253.642,350.141 259.5,349.5C 264.408,349.309 269.074,348.309 273.5,346.5C 276.322,346.909 279.156,346.909 282,346.5C 282.374,345.584 282.874,344.75 283.5,344C 288.03,343.053 292.364,343.553 296.5,345.5C 296.833,354.5 297.167,363.5 297.5,372.5C 297.473,381.994 296.807,391.328 295.5,400.5C 296.357,401.425 297.357,402.092 298.5,402.5 Z"/></g>
<g><path style="opacity:1" fill="#4a34ed" d="M 278.5,417.5 C 277.127,417.343 275.793,417.51 274.5,418C 271.841,420.829 268.674,422.996 265,424.5C 262.31,423.178 259.81,423.345 257.5,425C 258.308,425.308 258.975,425.808 259.5,426.5C 258.311,427.429 256.978,427.762 255.5,427.5C 255.5,428.833 255.5,430.167 255.5,431.5C 251.231,432.699 246.897,433.699 242.5,434.5C 242.5,433.5 242.5,432.5 242.5,431.5C 244.5,431.167 246.5,430.833 248.5,430.5C 248.185,428.774 248.019,427.107 248,425.5C 248.333,425.833 248.667,426.167 249,426.5C 250.403,424.802 252.236,424.302 254.5,425C 255.014,422.585 256.014,421.251 257.5,421C 255.71,403.628 254.877,386.128 255,368.5C 254.691,367.234 254.191,366.067 253.5,365C 255.155,363.556 255.822,361.722 255.5,359.5C 253.095,359.866 250.762,360.533 248.5,361.5C 247.09,361.132 246.09,360.299 245.5,359C 248.688,357.684 252.022,357.184 255.5,357.5C 255.5,356.5 255.5,355.5 255.5,354.5C 251.833,354.5 248.167,354.5 244.5,354.5C 248.298,353.517 252.298,353.183 256.5,353.5C 256.351,354.552 256.517,355.552 257,356.5C 257.667,355.167 258.333,353.833 259,352.5C 259.333,353.5 259.667,354.5 260,355.5C 262.649,350.565 266.649,349.232 272,351.5C 272.777,349.785 274.11,348.785 276,348.5C 278.756,348.424 279.923,349.757 279.5,352.5C 277.801,352.34 276.134,352.506 274.5,353C 275.493,373.424 275.827,393.924 275.5,414.5C 276.5,414.5 277.5,414.5 278.5,414.5C 278.5,415.5 278.5,416.5 278.5,417.5 Z"/></g>
<g><path style="opacity:0.584" fill="#4136b9" d="M 182.5,347.5 C 202.183,352.835 222.183,354.502 242.5,352.5C 242.5,353.167 242.5,353.833 242.5,354.5C 229.816,354.832 217.149,354.499 204.5,353.5C 196.6,353.195 189.266,351.195 182.5,347.5 Z"/></g>
<g><path style="opacity:1" fill="#3e32cc" d="M 97.5,352.5 C 99.5441,353.031 101.211,354.198 102.5,356C 104.473,356.495 106.473,356.662 108.5,356.5C 108.5,358.5 108.5,360.5 108.5,362.5C 104.225,359.858 100.558,356.525 97.5,352.5 Z"/></g>
<g><path style="opacity:0.982" fill="#3e32ce" d="M 109.5,362.5 C 113.749,364.461 118.082,366.127 122.5,367.5C 122.281,368.675 122.614,369.675 123.5,370.5C 127.212,370.97 130.545,372.303 133.5,374.5C 134.526,376.831 135.86,378.831 137.5,380.5C 127.172,376.006 117.839,370.006 109.5,362.5 Z"/></g>
<g><path style="opacity:1" fill="#3f32d3" d="M 171.5,394.5 C 159.491,391.172 148.158,386.505 137.5,380.5C 139.92,380.708 142.253,380.374 144.5,379.5C 146.907,381.571 149.573,383.238 152.5,384.5C 154.62,383.128 155.62,383.795 155.5,386.5C 158.216,386.678 160.883,387.178 163.5,388C 164.337,389.011 164.67,390.178 164.5,391.5C 167.461,391.464 169.794,392.464 171.5,394.5 Z"/></g>
<g><path style="opacity:0.604" fill="#3e33c0" d="M 173.5,395.5 C 175.641,394.837 177.975,394.503 180.5,394.5C 194.666,398.297 208.999,400.631 223.5,401.5C 206.547,401.84 189.88,399.84 173.5,395.5 Z"/></g>
<g><path style="opacity:1" fill="#5a3dd4" d="M 331.5,379.5 C 318.567,393.442 303.9,405.109 287.5,414.5C 287.281,413.325 287.614,412.325 288.5,411.5C 293.414,410.587 293.747,408.92 289.5,406.5C 292.285,404.432 295.285,403.098 298.5,402.5C 299.991,402.099 301.658,401.932 303.5,402C 303.167,401.667 302.833,401.333 302.5,401C 304.087,400.138 305.754,399.471 307.5,399C 306.383,397.108 304.716,396.275 302.5,396.5C 302.222,394.654 302.889,393.32 304.5,392.5C 308.29,396.423 311.957,396.423 315.5,392.5C 312.436,391.051 309.769,389.051 307.5,386.5C 308,386.167 308.5,385.833 309,385.5C 310.136,386.783 311.469,387.783 313,388.5C 313.765,388.43 314.265,388.097 314.5,387.5C 316.2,387.626 317.7,388.293 319,389.5C 322.903,386.617 325.569,382.95 327,378.5C 328.356,379.38 329.856,379.714 331.5,379.5 Z"/></g>
<g><path style="opacity:0.986" fill="#4936d0" d="M 287.5,414.5 C 277.761,421.705 267.094,427.372 255.5,431.5C 255.5,430.167 255.5,428.833 255.5,427.5C 256.978,427.762 258.311,427.429 259.5,426.5C 258.975,425.808 258.308,425.308 257.5,425C 259.81,423.345 262.31,423.178 265,424.5C 268.674,422.996 271.841,420.829 274.5,418C 275.793,417.51 277.127,417.343 278.5,417.5C 280.196,417.315 281.529,416.481 282.5,415C 284.134,414.506 285.801,414.34 287.5,414.5 Z"/></g>
<g><path style="opacity:1" fill="#3e31ca" d="M 223.5,401.5 C 224.33,410.324 224.83,419.324 225,428.5C 225.202,430.256 225.702,431.922 226.5,433.5C 227.613,436.477 229.613,437.977 232.5,438C 231.044,437.577 230.544,436.744 231,435.5C 232.019,434.313 233.186,433.313 234.5,432.5C 235.506,432.938 235.506,433.604 234.5,434.5C 237.199,435.729 239.865,435.729 242.5,434.5C 246.897,433.699 251.231,432.699 255.5,431.5C 249.115,434.466 242.448,436.966 235.5,439C 228.945,441.056 224.612,438.889 222.5,432.5C 223.476,422.219 223.809,411.886 223.5,401.5 Z"/></g>
</svg>
